# AST/ASF file generated using VICON BodyLanguage
# -----------------------------------------------
:version 1.10
:name VICON
:units
  mass 1.0
  length 0.45
  angle deg
:documentation
   .ast/.asf automatically generated from VICON data using
   VICON BodyBuilder and BodyLanguage model FoxedUp or BRILLIANT.MOD
:root
   order TX TY TZ RX RY RZ
   axis XYZ
   position 0 0 0  
   orientation 0 0 0 
:bonedata
  begin
     id 1 
     name lhipjoint
     direction 0.547975 -0.797114 0.253638 
     length 2.36201 
     axis 0 0 0  XYZ
  end
  begin
     id 2 
     name lfemur
     direction 0.34202 -0.939693 0  
     length 7.69075  
     axis 0 0 20  XYZ
    dof rx ry rz
    limits (-160.0 20.0)
           (-70.0 70.0)
           (-60.0 70.0)
  end
  begin
     id 3 
     name ltibia
     direction 0.34202 -0.939693 0   
     length 7.91399   
     axis 0 0 20   XYZ
    dof rx
    limits (-10.0 170.0)
  end
  begin
     id 4 
     name lfoot
     direction 0.0705293 -0.193778 0.978507   
     length 2.13618   
     axis -90 7.62852e-016 20   XYZ
    dof rx rz
    limits (-45.0 90.0)
           (-70.0 20.0)
  end
  begin
     id 5 
     name ltoes
     direction 1.53592e-011 -4.21925e-011 1   
     length 1.07518   
     axis -90 7.62852e-016 20   XYZ
    dof rx
    limits (-90.0 20.0)
  end
  begin
     id 6 
     name rhipjoint
     direction -0.57 -0.782963 0.249136   
     length 2.4047  
     axis 0 0 0  XYZ 
  end
  begin
     id 7 
     name rfemur
     direction -0.34202 -0.939693 0   
     length 7.51486   
     axis 0 0 -20   XYZ
    dof rx ry rz
    limits (-160.0 20.0)
           (-70.0 70.0)
           (-70.0 60.0)
  end
  begin
     id 8 
     name rtibia
     direction -0.34202 -0.939693 0   
     length 8.08317   
     axis 0 0 -20   XYZ
    dof rx
    limits (-10.0 170.0)
 end
 begin
     id 9 
     name rfoot
     direction -0.104954 -0.281256 0.953876   
     length 2.30343  
     axis -90 -7.62852e-016 -20   XYZ
    dof rx rz
    limits (-45.0 90.0)
           (-20.0 70.0)
  end
  begin
     id 10 
     name rtoes
     direction -1.53556e-011 -4.21922e-011 1   
     length 1.14803   
     axis -90 -7.62852e-016 -20   XYZ
    dof rx
    limits (-90.0 20.0)
  end
  begin
     id 11 
     name lowerback
     direction -0.0152855 0.99353 -0.11254   
     length 2.05311   
     axis 0 0 0   XYZ
    dof rx ry rz
    limits (-20.0 45.0)
           (-30.0 30.0)
           (-30.0 30.0)
  end
  begin
     id 12 
     name upperback
     direction -0.00157509 0.999443 -0.033332   
     length 2.06353   
     axis 0 0 0   XYZ
    dof rx ry rz
    limits (-20.0 45.0)
           (-30.0 30.0)
           (-30.0 30.0)
  end
  begin
     id 13 
     name thorax
     direction 0.00577788 0.999804 0.0189484   
     length 2.08472   
     axis 0 0 0   XYZ
    dof rx ry rz
    limits (-20.0 45.0)
           (-30.0 30.0)
           (-30.0 30.0)
  end
  begin
     id 14 
     name lowerneck
     direction -1.09301e-005 0.994719 0.10264   
     length 1.76249   
     axis 0 0 0   XYZ
    dof rx ry rz
    limits (-20.0 45.0)
           (-30.0 30.0)
           (-30.0 30.0)
  end
  begin
     id 15 
     name upperneck
     direction 0.0495018 0.988526 -0.142706   
     length 1.77897   
     axis 0 0 0   XYZ
    dof rx ry rz
    limits (-20.0 45.0)
           (-30.0 30.0)
           (-30.0 30.0)
  end
  begin
     id 16
     name head
     direction 0.0142736 0.998114 -0.0597101  
     length 1.78934  
     axis 0 0 0   XYZ
    dof rx ry rz
    limits (-20.0 45.0)
           (-30.0 30.0)
           (-30.0 30.0)
  end
  begin
     id 17 
     name lclavicle
     direction 0.918111 0.396107 -0.0130883  
     length 3.37276  
     axis 0 0 0   XYZ
    dof ry rz
    limits (-20.0 10.0)
           (0.0 20.0)
  end
  begin
     id 18 
     name lhumerus
     direction 1 -4.48975e-011 -3.26108e-027   
     length 5.34298   
     axis 180 -30 -90   XYZ
    dof rx ry rz
    limits (-60.0 90.0)
           (-90.0 90.0)
           (-90.0 90.0)
  end
  begin
     id 19
     name lradius
     direction 1 -4.48964e-011 -8.84413e-028   
     length 3.67262   
     axis 180 -30 -90   XYZ
    dof rx
    limits (-10.0 170.0)
  end
  begin
     id 20
     name lwrist
     direction 1 -4.48991e-011 -1.24264e-027   
     length 1.83631   
     axis -2.17013e-015 90 90   XYZ
    dof ry
    limits (-180.0 0.0)
 end
  begin
     id 21 
     name lhand
     direction 1 -4.48855e-011 -2.48528e-027   
     length 0.599298   
     axis 1.58582e-015 90 90   XYZ
    dof rx rz
    limits (-90.0 90.0)
           (-45.0 45.0)
  end
  begin
     id 22 
     name lfingers
     direction 1 -4.48811e-011 -4.97056e-027   
     length 0.48317   
     axis 3.17164e-015 90 90   XYZ
    dof rx
    limits (0.0 90.0)
  end
  begin
     id 23
     name lthumb
     direction 0.707107 -6.34882e-011 0.707107   
     length 0.693738   
     axis -90 45 2.85299e-015   XYZ
    dof rx rz
    limits (-45.0 45.0)
           (-45.0 45.0)
  end
  begin
     id 24 
     name rclavicle
     direction -0.920511 0.384752 -0.0680135   
     length 3.43787  
     axis 0 0 0   XYZ 
    dof ry rz
    limits (-10.0 20.0)
           (-20.0 0.0)
  end
  begin
     id 25 
     name rhumerus
     direction -0.999976 -0.00330524 0.00603274  
     length 5.5498   
     axis 180 30 90   XYZ
    dof rx ry rz
    limits (-90.0 60.0)
           (-90.0 90.0)
           (-90.0 90.0)
  end
  begin
     id 26 
     name rradius
     direction -1 -4.48967e-011 8.62438e-027   
     length 3.69401   
     axis 180 30 90   XYZ
    dof rx
    limits (-10.0 170.0)
  end
  begin
     id 27 
     name rwrist
     direction -1 -4.4897e-011 9.54866e-027   
     length 1.84701   
     axis -7.69462e-015 -90 -90   XYZ
    dof ry
    limits (-180.0 0.0)
  end
  begin
     id 28
     name rhand
     direction -1 -4.48982e-011 1.90973e-026   
     length 0.638113   
     axis -1.21857e-014 -90 -90   XYZ
    dof rx rz
    limits (-90.0 90.0)
           (-45.0 45.0)
  end
  begin
     id 29
     name rfingers
     direction -1 -4.48936e-011 3.81946e-026   
     length 0.514463   
     axis -2.43714e-014 -90 -90   XYZ
    dof rx
    limits (0.0 90.0)
  end
  begin
     id 30
     name rthumb
     direction -0.707107 -6.34942e-011 0.707107   
     length 0.738669   
     axis -90 -45 -2.85299e-015   XYZ
    dof rx rz
    limits (-45.0 45.0)
           (-45.0 45.0)
  end
:hierarchy
  begin
    root lhipjoint rhipjoint lowerback
    lhipjoint lfemur
    lfemur ltibia
    ltibia lfoot
    lfoot ltoes
    rhipjoint rfemur
    rfemur rtibia
    rtibia rfoot
    rfoot rtoes
    lowerback upperback
    upperback thorax
    thorax lowerneck lclavicle rclavicle
    lowerneck upperneck
    upperneck head
    lclavicle lhumerus
    lhumerus lradius
    lradius lwrist
    lwrist lhand lthumb
    lhand lfingers
    rclavicle rhumerus
    rhumerus rradius
    rradius rwrist
    rwrist rhand rthumb
    rhand rfingers
  end

#!OML:ASF F:\twosubjects\two\Thursday\Session 1\Rory.ASF
:FULLY-SPECIFIED
:DEGREES
144
root 23.454 18.7518 12.1292 2.00139 -4.51218 6.76288
lowerback -0.26492 -3.39348 -8.10473
upperback 0.890407 -4.42792 -2.57091
thorax 1.48037 -2.27767 1.78081
lowerneck 1.43738 -14.7953 -14.8517
upperneck 11.0251 -22.4385 19.4953
head 7.06617 -10.8921 6.69126
rclavicle -1.0312e-013 -3.97569e-016
rhumerus -48.2671 -25.5254 -67.0029
rradius 20.3233
rwrist 31.9379
rhand -29.4308 28.3355
rfingers 7.12502
rthumb -2.76777 -1.62631
lclavicle -1.0312e-013 -3.97569e-016
lhumerus -22.9672 -0.840952 80.5995
lradius 39.9568
lwrist -11.6282
lhand -13.6358 30.1292
lfingers 7.12502
lthumb 12.4802 59.7366
rfemur -25.4198 7.47098 13.6468
rtibia 20.9222
rfoot -5.44212 -8.0409
rtoes -16.1807
lfemur 11.7558 3.01892 -27.7453
ltibia 13.4639
lfoot -7.66804 -7.45022
ltoes -15.6527
145
root 23.4205 18.773 12.3004 1.95126 -4.21285 7.03863
lowerback -0.454965 -3.60186 -8.43117
upperback 0.724123 -4.69227 -2.51849
thorax 1.46995 -2.40794 1.99708
lowerneck 1.58495 -14.6618 -15.1689
upperneck 11.5842 -22.356 19.4234
head 7.23105 -10.8597 6.73601
rclavicle -8.10793e-014 -1.66979e-014
rhumerus -48.194 -26.3934 -66.1329
rradius 19.7637
rwrist 33.7344
rhand -30.5769 30.2714
rfingers 7.12502
rthumb -3.87452 0.326863
lclavicle -8.10793e-014 -1.66979e-014
lhumerus -23.6496 -0.523479 80.8669
lradius 40.2974
lwrist -11.6125
lhand -14.2121 29.9497
lfingers 7.12502
lthumb 11.9246 59.5901
rfemur -25.2861 7.75943 13.4236
rtibia 21.2957
rfoot -3.4951 -7.34421
rtoes -12.3475
lfemur 12.2848 2.74594 -27.8693
ltibia 13.4901
lfoot -6.97241 -7.75395
ltoes -19.0094
146
root 23.3887 18.7791 12.4673 1.67227 -3.84074 7.31532
lowerback -0.288802 -3.63232 -8.71171
upperback 0.633749 -4.75483 -2.52217
thorax 1.31178 -2.43359 2.15949
lowerneck 1.61832 -14.7336 -15.3228
upperneck 12.1638 -22.5476 19.2987
head 7.4494 -10.9457 6.68578
rclavicle -7.9489e-014 -6.08281e-014
rhumerus -48.1043 -26.8714 -65.8761
rradius 19.8625
rwrist 33.8264
rhand -30.5435 30.441
rfingers 7.12502
rthumb -3.84232 0.495941
lclavicle -7.9489e-014 -6.08281e-014
lhumerus -24.0023 -0.586616 81.2765
lradius 40.2649
lwrist -11.7544
lhand -13.7003 29.8183
lfingers 7.12502
lthumb 12.418 59.4295
rfemur -24.862 8.1469 13.1819
rtibia 21.5415
rfoot -1.83065 -7.45193
rtoes -8.60018
lfemur 12.8625 2.09266 -28.0866
ltibia 13.8622
lfoot -5.83803 -7.98233
ltoes -18.3452
147
root 23.3571 18.7938 12.6352 1.37715 -3.66875 6.64789
lowerback -0.133985 -3.61504 -8.05113
upperback 0.57912 -4.75949 -2.27121
thorax 1.13532 -2.42541 2.07097
lowerneck 2.0313 -14.7777 -15.3166
upperneck 12.3024 -22.6557 19.1468
head 7.42149 -11.0249 6.65313
rclavicle -3.32964e-014 1.11319e-014
rhumerus -47.9545 -26.918 -65.929
rradius 20.1245
rwrist 33.4164
rhand -30.2338 30.7492
rfingers 7.12502
rthumb -3.54327 0.798878
lclavicle -3.32964e-014 1.11319e-014
lhumerus -24.2131 -0.738308 81.6485
lradius 39.999
lwrist -11.6823
lhand -13.3912 30.0546
lfingers 7.12502
lthumb 12.7161 59.6475
rfemur -24.2414 9.09445 13.953
rtibia 21.8075
rfoot -0.655503 -8.53676
rtoes -4.70236
lfemur 13.3462 1.41835 -27.3258
ltibia 14.5148
lfoot -4.49996 -7.90611
ltoes -12.9734
148
root 23.3332 18.8143 12.8061 1.19629 -3.47952 5.8911
lowerback -0.306054 -3.7359 -7.22503
upperback 0.684928 -4.90488 -2.02622
thorax 1.30659 -2.50093 1.84951
lowerneck 2.30993 -14.7609 -15.1718
upperneck 12.1947 -22.6423 19.13
head 7.31597 -11.0345 6.65574
rclavicle -2.10339e-014 -2.64384e-014
rhumerus -47.2638 -26.8139 -66.4721
rradius 20.254
rwrist 32.8111
rhand -29.943 30.6596
rfingers 7.12502
rthumb -3.26239 0.704813
lclavicle -2.10339e-014 -2.64384e-014
lhumerus -24.2256 -0.537537 81.8356
lradius 39.7272
lwrist -11.6201
lhand -13.9899 30.0597
lfingers 7.12502
lthumb 12.1389 59.6875
rfemur -23.5299 9.2658 15.0087
rtibia 22.0634
rfoot 0.054707 -9.15456
rtoes -1.20178
lfemur 13.2887 1.06213 -26.4254
ltibia 16.0193
lfoot -4.0578 -7.77971
ltoes -12.3108
149
root 23.3031 18.8251 12.9754 1.05689 -3.32377 5.25396
lowerback -0.455164 -3.87635 -6.56977
upperback 0.71876 -5.08528 -1.782
thorax 1.40504 -2.59031 1.72286
lowerneck 2.36473 -14.7529 -15.1029
upperneck 12.3906 -22.633 18.9035
head 7.32979 -11.0336 6.57893
rclavicle 1.33931e-014 -1.49089e-014
rhumerus -46.5113 -26.2383 -67.2801
rradius 20.3655
rwrist 32.0669
rhand -29.8713 30.6463
rfingers 7.12502
rthumb -3.1932 0.690493
lclavicle 1.33931e-014 -1.49089e-014
lhumerus -24.5286 0.0464627 81.9783
lradius 39.5704
lwrist -11.9998
lhand -13.8345 29.8636
lfingers 7.12502
lthumb 12.2887 59.4825
rfemur -22.8371 8.9673 16.1089
rtibia 22.3093
rfoot 0.321868 -8.82486
rtoes -0.624119
lfemur 12.8931 0.946945 -25.5871
ltibia 18.0692
lfoot -3.824 -7.75439
ltoes -14.8746
150
root 23.2737 18.836 13.1403 0.992953 -3.20202 4.65029
lowerback -0.40757 -3.97397 -6.00155
upperback 0.516839 -5.23712 -1.49798
thorax 1.1569 -2.65322 1.71109
lowerneck 2.21157 -14.7362 -14.9078
upperneck 13.0897 -22.5946 18.2187
head 7.4628 -11.0046 6.32154
rclavicle 4.97583e-015 2.78299e-015
rhumerus -46.0853 -25.5579 -67.8196
rradius 20.3594
rwrist 31.4516
rhand -29.9669 30.6774
rfingers 7.12502
rthumb -3.28545 0.722976
lclavicle 4.97583e-015 2.78299e-015
lhumerus -25.1839 0.745154 82.2368
lradius 39.3539
lwrist -12.6938
lhand -13.2 29.6495
lfingers 7.12502
lthumb 12.9004 59.2308
rfemur -22.3513 8.67272 17.1511
rtibia 22.7608
rfoot -0.190786 -7.59941
rtoes -2.27691
lfemur 12.318 1.05924 -24.7073
ltibia 20.2062
lfoot -2.99172 -7.91497
ltoes -16.5197
151
root 23.251 18.8455 13.301 0.885657 -3.04131 4.24005
lowerback -0.561263 -4.01405 -5.62976
upperback 0.577728 -5.28151 -1.31659
thorax 1.29235 -2.67786 1.67661
lowerneck 1.61545 -14.8118 -14.415
upperneck 13.7959 -22.6512 17.5953
head 7.66684 -10.9785 5.99054
rclavicle 5.45415e-015 -1.64991e-014
rhumerus -45.4589 -26.1539 -67.813
rradius 20.1257
rwrist 31.6658
rhand -29.9055 30.6813
rfingers 7.12502
rthumb -3.22616 0.725986
lclavicle 5.45415e-015 -1.64991e-014
lhumerus -25.2547 1.23141 82.4732
lradius 38.9755
lwrist -13.4528
lhand -13.4015 28.9412
lfingers 7.12502
lthumb 12.7062 58.5346
rfemur -21.8422 7.92369 17.9648
rtibia 23.2758
rfoot -1.28567 -6.25439
rtoes -3.10556
lfemur 11.6101 1.23836 -23.9896
ltibia 22.4647
lfoot -1.92379 -8.01813
ltoes -14.0546
152
root 23.2257 18.8479 13.465 0.699858 -3.03763 3.74819
lowerback -0.869705 -4.01649 -5.18185
upperback 0.761281 -5.26462 -1.09154
thorax 1.63355 -2.67716 1.62871
lowerneck 1.26324 -14.8555 -14.1786
upperneck 14.2428 -22.6881 17.2318
head 7.80568 -10.9662 5.8033
rclavicle -2.3792e-015 9.54166e-015
rhumerus -44.7451 -26.4478 -68.0151
rradius 20.1558
rwrist 31.644
rhand -29.2527 29.9948
rfingers 7.12502
rthumb -2.59571 0.0308275
lclavicle -2.3792e-015 9.54166e-015
lhumerus -25.1544 1.73272 82.7226
lradius 38.4776
lwrist -14.137
lhand -13.5067 28.4557
lfingers 7.12502
lthumb 12.6047 58.0554
rfemur -21.1839 7.12654 18.8644
rtibia 23.6751
rfoot -2.14563 -5.64393
rtoes -4.27402
lfemur 10.8774 1.60791 -23.1552
ltibia 24.9026
lfoot -0.558843 -8.05642
ltoes -8.87783
153
root 23.2033 18.8603 13.6275 0.714635 -3.00079 3.33667
lowerback -1.06756 -4.04979 -4.70958
upperback 0.613605 -5.3124 -0.857729
thorax 1.57409 -2.69433 1.59854
lowerneck 1.50803 -14.7957 -14.2511
upperneck 14.5683 -22.6378 16.9898
head 7.83842 -10.9626 5.76289
rclavicle 2.49599e-014 4.96962e-016
rhumerus -44.3813 -25.788 -68.4886
rradius 20.3978
rwrist 31.0858
rhand -28.8827 29.2251
rfingers 7.12502
rthumb -2.23846 -0.742881
lclavicle 2.49599e-014 4.96962e-016
lhumerus -25.5817 2.21047 83.0659
lradius 38.0402
lwrist -14.4563
lhand -12.9031 28.7323
lfingers 7.12502
lthumb 13.1866 58.2953
rfemur -20.6796 6.42922 19.5746
rtibia 23.9842
rfoot -2.81632 -5.27505
rtoes -6.18662
lfemur 9.88457 2.21096 -22.4027
ltibia 27.3897
lfoot 1.48315 -8.3845
ltoes -7.82145
154
root 23.1782 18.8745 13.7852 0.752697 -2.916 2.83779
lowerback -1.25351 -4.01652 -4.14951
upperback 0.496074 -5.27364 -0.661142
thorax 1.52214 -2.66839 1.48474
lowerneck 1.90345 -14.8372 -14.1153
upperneck 14.571 -22.712 16.8414
head 7.74767 -11.0219 5.72036
rclavicle 1.75039e-014 3.67752e-015
rhumerus -44.0768 -25.9589 -68.5753
rradius 20.3911
rwrist 31.2924
rhand -29.4266 29.5108
rfingers 7.12502
rthumb -2.76367 -0.45107
lclavicle 1.75039e-014 3.67752e-015
lhumerus -25.8993 2.47992 83.3434
lradius 37.6466
lwrist -14.7072
lhand -12.4144 28.6217
lfingers 7.12502
lthumb 13.6577 58.1536
rfemur -20.1438 5.82155 20.3327
rtibia 24.1712
rfoot -3.59578 -4.75869
rtoes -6.86404
lfemur 8.74893 2.8603 -21.4768
ltibia 29.9101
lfoot 3.9699 -8.66913
ltoes -6.74014
155
root 23.148 18.874 13.9362 0.632056 -2.90267 2.19448
lowerback -1.32877 -3.88498 -3.52686
upperback 0.506046 -5.10896 -0.440835
thorax 1.53017 -2.58217 1.36748
lowerneck 2.10385 -14.9912 -13.8867
upperneck 14.6061 -22.9263 16.6716
head 7.71155 -11.1307 5.61966
rclavicle 2.42828e-014 -4.32357e-015
rhumerus -43.7971 -26.9078 -68.2178
rradius 20.189
rwrist 32.0501
rhand -29.6201 29.8983
rfingers 7.12502
rthumb -2.95059 -0.0609857
lclavicle 2.42828e-014 -4.32357e-015
lhumerus -26.0142 2.8217 83.5813
lradius 37.1006
lwrist -15.4058
lhand -11.6623 28.1596
lfingers 7.12502
lthumb 14.3824 57.6413
rfemur -19.4182 5.45287 21.2155
rtibia 24.1751
rfoot -4.22476 -4.35273
rtoes -6.69366
lfemur 7.63466 3.37674 -20.3074
ltibia 32.4853
lfoot 6.46141 -8.57348
ltoes -2.00197
156
root 23.1137 18.8692 14.0821 0.508188 -2.95114 1.74464
lowerback -1.24775 -3.70514 -3.17636
upperback 0.448581 -4.88236 -0.263119
thorax 1.40011 -2.46463 1.37238
lowerneck 2.13376 -15.1546 -13.7532
upperneck 14.9138 -23.198 16.5644
head 7.82338 -11.2499 5.52514
rclavicle 7.51608e-014 5.46658e-015
rhumerus -43.5509 -26.9916 -68.4663
rradius 20.4375
rwrist 31.5354
rhand -29.5667 29.7558
rfingers 7.12502
rthumb -2.89905 -0.20428
lclavicle 7.51608e-014 5.46658e-015
lhumerus -26.1908 3.04834 83.8806
lradius 36.4453
lwrist -16.1163
lhand -11.6111 27.9414
lfingers 7.12502
lthumb 14.4317 57.4197
rfemur -18.71 5.37704 21.8271
rtibia 24.1319
rfoot -4.83881 -4.10273
rtoes -6.71229
lfemur 6.44536 3.7485 -19.4117
ltibia 34.9706
lfoot 9.00425 -8.40081
ltoes 1.38491
157
root 23.0783 18.8722 14.2298 0.330325 -3.02427 1.36511
lowerback -1.15055 -3.5264 -2.92667
upperback 0.443001 -4.65386 -0.104722
thorax 1.32201 -2.34833 1.4107
lowerneck 2.25717 -15.2627 -13.5737
upperneck 14.9059 -23.3726 16.5991
head 7.81125 -11.3288 5.49688
rclavicle -2.64601e-014 -1.63997e-015
rhumerus -43.1351 -26.4944 -69.196
rradius 20.9082
rwrist 30.4114
rhand -30.2644 30.1277
rfingers 7.12502
rthumb -3.57281 0.177933
lclavicle -2.64601e-014 -1.63997e-015
lhumerus -26.3717 3.16596 84.2487
lradius 35.8743
lwrist -16.5189
lhand -12.8505 27.9562
lfingers 7.12502
lthumb 13.2373 57.5159
rfemur -17.916 5.36151 22.3722
rtibia 24.1702
rfoot -5.57099 -3.85538
rtoes -6.65704
lfemur 5.35707 4.08496 -18.6981
ltibia 37.339
lfoot 11.5459 -8.3929
ltoes 1.2765
